# xmcd
#
# Track frame offsets: 
#        150
#        18401
#        33930
#        49693
#        71122
#        83567
#        96992
#        112917
#        128611
#        141746
#        164295
#        175638
#
# Disc length: 2749 seconds
#
# Revision: 0
# Processed by: cddbd v1.5.2PL0 Copyright (c) Steve Scherf et al.
# Submitted via: ExactAudioCopy v0.95b4
#
DISCID=990abb0c
DTITLE=Psihomodo Pop - Plastic Fantastic
DYEAR=2004
DGENRE=Blues
TTITLE0=Linoleum Boy
TTITLE1=Daj Mi Pusu
TTITLE2=Bas Kao
TTITLE3=Lagano Padam
TTITLE4=Privatni Pakao
TTITLE5=OK
TTITLE6=Baby
TTITLE7=Oda Radosti
TTITLE8=Uvijek Je Sama
TTITLE9=Spustamo Se Sad
TTITLE10=Galebovi
TTITLE11=Osjecaj Je Jak
EXTD=
EXTT0=
EXTT1=
EXTT2=
EXTT3=
EXTT4=
EXTT5=
EXTT6=
EXTT7=
EXTT8=
EXTT9=
EXTT10=
EXTT11=
PLAYORDER=
